<?xml version="1.0" standalone="no"?>
<svg xmlns:xlink="http://www.w3.org/1999/xlink" id="wave" style="transform:rotate(0deg); transition: 0.3s" viewBox="0 0 1440 490" version="1.1" xmlns="http://www.w3.org/2000/svg"><defs><linearGradient id="sw-gradient-0" x1="0" x2="0" y1="1" y2="0"><stop stop-color="rgba(0, 0, 0, 1)" offset="0%"/><stop stop-color="rgba(0, 0, 0, 1)" offset="100%"/></linearGradient></defs><path style="transform:translate(0, 0px); opacity:1" fill="url(#sw-gradient-0)" d="M0,392L240,326.7C480,261,960,131,1440,130.7C1920,131,2400,261,2880,310.3C3360,359,3840,327,4320,261.3C4800,196,5280,98,5760,57.2C6240,16,6720,33,7200,106.2C7680,180,8160,310,8640,318.5C9120,327,9600,212,10080,147C10560,82,11040,65,11520,73.5C12000,82,12480,114,12960,106.2C13440,98,13920,49,14400,81.7C14880,114,15360,229,15840,269.5C16320,310,16800,278,17280,245C17760,212,18240,180,18720,187.8C19200,196,19680,245,20160,236.8C20640,229,21120,163,21600,147C22080,131,22560,163,23040,212.3C23520,261,24000,327,24480,318.5C24960,310,25440,229,25920,236.8C26400,245,26880,343,27360,375.7C27840,408,28320,376,28800,318.5C29280,261,29760,180,30240,122.5C30720,65,31200,33,31680,16.3C32160,0,32640,0,33120,0C33600,0,34080,0,34320,0L34560,0L34560,490L34320,490C34080,490,33600,490,33120,490C32640,490,32160,490,31680,490C31200,490,30720,490,30240,490C29760,490,29280,490,28800,490C28320,490,27840,490,27360,490C26880,490,26400,490,25920,490C25440,490,24960,490,24480,490C24000,490,23520,490,23040,490C22560,490,22080,490,21600,490C21120,490,20640,490,20160,490C19680,490,19200,490,18720,490C18240,490,17760,490,17280,490C16800,490,16320,490,15840,490C15360,490,14880,490,14400,490C13920,490,13440,490,12960,490C12480,490,12000,490,11520,490C11040,490,10560,490,10080,490C9600,490,9120,490,8640,490C8160,490,7680,490,7200,490C6720,490,6240,490,5760,490C5280,490,4800,490,4320,490C3840,490,3360,490,2880,490C2400,490,1920,490,1440,490C960,490,480,490,240,490L0,490Z"/></svg>